<svg xmlns="http://www.w3.org/2000/svg" width="1440" height="900"><path d="M819,303L893,21L655,128Z" fill="#97a6ce" stroke="#97a6ce" stroke-width="1.51"/><path d="M819,303L1125,227L893,21Z" fill="#969bc9" stroke="#969bc9" stroke-width="1.51"/><path d="M893,21L595,-242L655,128Z" fill="#a2b2d4" stroke="#a2b2d4" stroke-width="1.51"/><path d="M819,303L815,747L1125,227Z" fill="#8e8cc1" stroke="#8e8cc1" stroke-width="1.51"/><path d="M502,733L815,747L819,303Z" fill="#8d8bc0" stroke="#8d8bc0" stroke-width="1.51"/><path d="M1125,227L1411,54L893,21Z" fill="#9c93c5" stroke="#9c93c5" stroke-width="1.51"/><path d="M1016,-507L535,-418L595,-242Z" fill="#b7c1dd" stroke="#b7c1dd" stroke-width="1.51"/><path d="M1618,242L1411,54L1125,227Z" fill="#9783bd" stroke="#9783bd" stroke-width="1.51"/><path d="M595,-242L259,-178L655,128Z" fill="#acc0dc" stroke="#acc0dc" stroke-width="1.51"/><path d="M1016,-507L595,-242L893,21Z" fill="#b0b4d6" stroke="#b0b4d6" stroke-width="1.51"/><path d="M655,128L306,547L819,303Z" fill="#93a5ce" stroke="#93a5ce" stroke-width="1.51"/><path d="M535,-418L259,-178L595,-242Z" fill="#b8cae2" stroke="#b8cae2" stroke-width="1.51"/><path d="M95,386L306,547L655,128Z" fill="#99b0d3" stroke="#99b0d3" stroke-width="1.51"/><path d="M306,547L502,733L819,303Z" fill="#9199c8" stroke="#9199c8" stroke-width="1.51"/><path d="M1348,-407L1016,-507L893,21Z" fill="#b3a7d1" stroke="#b3a7d1" stroke-width="1.51"/><path d="M173,883L500,888L502,733Z" fill="#968ac0" stroke="#968ac0" stroke-width="1.51"/><path d="M259,-178L95,386L655,128Z" fill="#a3bfdc" stroke="#a3bfdc" stroke-width="1.51"/><path d="M259,-178L-31,-8L95,386Z" fill="#b1c9e1" stroke="#b1c9e1" stroke-width="1.51"/><path d="M535,-418L209,-336L259,-178Z" fill="#bdd2e6" stroke="#bdd2e6" stroke-width="1.51"/><path d="M815,747L1291,750L1125,227Z" fill="#8d77b6" stroke="#8d77b6" stroke-width="1.51"/><path d="M1411,54L1348,-407L893,21Z" fill="#a898c8" stroke="#a898c8" stroke-width="1.51"/><path d="M815,747L936,959L1291,750Z" fill="#8c68af" stroke="#8c68af" stroke-width="1.51"/><path d="M502,733L500,888L815,747Z" fill="#9082bc" stroke="#9082bc" stroke-width="1.51"/><path d="M173,883L502,733L306,547Z" fill="#9894c6" stroke="#9894c6" stroke-width="1.51"/><path d="M1411,54L1638,-18L1348,-407Z" fill="#a98bc1" stroke="#a98bc1" stroke-width="1.51"/><path d="M1291,750L1618,242L1125,227Z" fill="#8e75b5" stroke="#8e75b5" stroke-width="1.51"/><path d="M500,888L936,959L815,747Z" fill="#8c74b5" stroke="#8c74b5" stroke-width="1.51"/><path d="M1618,242L1638,-18L1411,54Z" fill="#9c7eb8" stroke="#9c7eb8" stroke-width="1.51"/><path d="M209,-336L-31,-8L259,-178Z" fill="#bed2e6" stroke="#bed2e6" stroke-width="1.51"/><path d="M-123,659L173,883L306,547Z" fill="#a19dca" stroke="#a19dca" stroke-width="1.51"/><path d="M500,888L614,1333L936,959Z" fill="#8e6bae" stroke="#8e6bae" stroke-width="1.51"/><path d="M-123,659L306,547L95,386Z" fill="#a2abd1" stroke="#a2abd1" stroke-width="1.51"/><path d="M1291,750L1603,732L1618,242Z" fill="#8c60a9" stroke="#8c60a9" stroke-width="1.51"/><path d="M1618,242L1925,60L1638,-18Z" fill="#9b76b0" stroke="#9b76b0" stroke-width="1.51"/><path d="M1400,990L1603,732L1291,750Z" fill="#8a4fa3" stroke="#8a4fa3" stroke-width="1.51"/><path d="M1348,-407L1603,-462L1016,-507Z" fill="#bb9fcd" stroke="#bb9fcd" stroke-width="1.51"/><path d="M1638,-18L1603,-462L1348,-407Z" fill="#b28fc3" stroke="#b28fc3" stroke-width="1.51"/><path d="M936,959L1400,990L1291,750Z" fill="#8b57a7" stroke="#8b57a7" stroke-width="1.51"/><path d="M-31,-8L-210,308L95,386Z" fill="#afc5df" stroke="#afc5df" stroke-width="1.51"/><path d="M-210,308L-123,659L95,386Z" fill="#a9b6d7" stroke="#a9b6d7" stroke-width="1.51"/><path d="M1638,-18L1891,-392L1603,-462Z" fill="#b187b9" stroke="#b187b9" stroke-width="1.51"/><path d="M2010,403L1925,60L1618,242Z" fill="#906aa4" stroke="#906aa4" stroke-width="1.51"/><path d="M936,959L1406,1271L1400,990Z" fill="#89479d" stroke="#89479d" stroke-width="1.51"/><path d="M82,1369L614,1333L500,888Z" fill="#9571ad" stroke="#9571ad" stroke-width="1.51"/><path d="M82,1369L500,888L173,883Z" fill="#9c80ba" stroke="#9c80ba" stroke-width="1.51"/><path d="M1603,732L2010,403L1618,242Z" fill="#8b5fa2" stroke="#8b5fa2" stroke-width="1.51"/><path d="M1400,990L1625,1032L1603,732Z" fill="#88429a" stroke="#88429a" stroke-width="1.51"/><path d="M1406,1271L1625,1032L1400,990Z" fill="#873795" stroke="#873795" stroke-width="1.51"/><path d="M1925,60L1891,-392L1638,-18Z" fill="#a57aaf" stroke="#a57aaf" stroke-width="1.51"/><path d="M-123,659L-136,921L173,883Z" fill="#a898c8" stroke="#a898c8" stroke-width="1.51"/><path d="M-518,842L-136,921L-123,659Z" fill="#b2a0cd" stroke="#b2a0cd" stroke-width="1.51"/><path d="M1925,60L2135,586L1891,-392Z" fill="#8d6c9e" stroke="#8d6c9e" stroke-width="1.51"/><path d="M2135,586L2010,403L1603,732Z" fill="#814e93" stroke="#814e93" stroke-width="1.51"/><path d="M-671,585L-518,842L-123,659Z" fill="#b9add4" stroke="#b9add4" stroke-width="1.51"/><path d="M-31,-8L-446,219L-210,308Z" fill="#bad0e4" stroke="#bad0e4" stroke-width="1.51"/><path d="M-536,-322L-446,219L-31,-8Z" fill="#ccdceb" stroke="#ccdceb" stroke-width="1.51"/><path d="M614,1333L763,1406L936,959Z" fill="#8b5ba0" stroke="#8b5ba0" stroke-width="1.51"/><path d="M763,1406L1406,1271L936,959Z" fill="#894b9b" stroke="#894b9b" stroke-width="1.51"/><path d="M209,-336L-283,-599L-31,-8Z" fill="#cedeec" stroke="#cedeec" stroke-width="1.51"/><path d="M535,-418L-283,-599L209,-336Z" fill="#cdddec" stroke="#cdddec" stroke-width="1.51"/><path d="M1016,-507L-283,-599L535,-418Z" fill="#c4d5e8" stroke="#c4d5e8" stroke-width="1.51"/><path d="M2010,403L2135,586L1925,60Z" fill="#7e5c93" stroke="#7e5c93" stroke-width="1.51"/><path d="M2110,938L2135,586L1603,732Z" fill="#7d3e8a" stroke="#7d3e8a" stroke-width="1.51"/><path d="M2110,938L1603,732L1625,1032Z" fill="#873791" stroke="#873791" stroke-width="1.51"/><path d="M-136,921L82,1369L173,883Z" fill="#a585bd" stroke="#a585bd" stroke-width="1.51"/><path d="M614,1333L82,1369L763,1406Z" fill="#87649c" stroke="#87649c" stroke-width="1.51"/><path d="M-283,-599L-536,-322L-31,-8Z" fill="#dae7f1" stroke="#dae7f1" stroke-width="1.51"/><path d="M-136,921L-146,1314L82,1369Z" fill="#a980b5" stroke="#a980b5" stroke-width="1.51"/><path d="M-671,585L-123,659L-210,308Z" fill="#b6b9da" stroke="#b6b9da" stroke-width="1.51"/><path d="M-671,585L-210,308L-446,219Z" fill="#bbc8e1" stroke="#bbc8e1" stroke-width="1.51"/><path d="M-536,-322L-687,11L-446,219Z" fill="#d3e1ee" stroke="#d3e1ee" stroke-width="1.51"/><path d="M-414,1295L-146,1314L-136,921Z" fill="#b086ba" stroke="#b086ba" stroke-width="1.51"/><path d="M1841,1381L2110,938L1625,1032Z" fill="#7f2080" stroke="#7f2080" stroke-width="1.51"/><path d="M-687,11L-671,585L-446,219Z" fill="#c4d2e6" stroke="#c4d2e6" stroke-width="1.51"/><path d="M1406,1271L1704,1429L1625,1032Z" fill="#842587" stroke="#842587" stroke-width="1.51"/><path d="M763,1406L1704,1429L1406,1271Z" fill="#7c3386" stroke="#7c3386" stroke-width="1.51"/><path d="M1704,1429L1841,1381L1625,1032Z" fill="#80167d" stroke="#80167d" stroke-width="1.51"/><path d="M-671,585L-414,1295L-518,842Z" fill="#bca0cd" stroke="#bca0cd" stroke-width="1.51"/><path d="M-518,842L-414,1295L-136,921Z" fill="#b694c6" stroke="#b694c6" stroke-width="1.51"/><path d="M-146,1314L-414,1295L82,1369Z" fill="#a57bac" stroke="#a57bac" stroke-width="1.51"/></svg>