<svg id="Line" xmlns="http://www.w3.org/2000/svg" viewBox="0 0 100 112"><defs><style>.cls-1{fill:none;stroke:#4550e5;stroke-linecap:round;stroke-linejoin:round;}</style></defs><title>06- stamp-document-approve</title><g id="Icons"><line class="cls-1" x1="60.69" y1="93" x2="42.16" y2="93"/><path class="cls-1" d="M40.16,26.45V21a2,2,0,0,1,2-2h42a1.84,1.84,0,0,1,.84.18,1.55,1.55,0,0,1,.58.4l8.84,8.84a1.92,1.92,0,0,1,.58,1.4V91a2,2,0,0,1-2,2H66.8"/><path class="cls-1" d="M71.53,80a10,10,0,1,0-1.35-5.26"/><polyline class="cls-1" points="75.17 75 79.17 79 85.67 71.5"/><line class="cls-1" x1="84.16" y1="43" x2="53.54" y2="43"/><line class="cls-1" x1="56" y1="37" x2="69.28" y2="37"/><line class="cls-1" x1="53.17" y1="48.99" x2="84.17" y2="48.99"/><line class="cls-1" x1="53.17" y1="55" x2="84.17" y2="55"/><path class="cls-1" d="M85,27.18A1.81,1.81,0,0,0,86.82,29h8a2,2,0,0,0-.38-.58l-8.83-8.83a2.09,2.09,0,0,0-.59-.39Z"/><path class="cls-1" d="M67,85.18A1.83,1.83,0,0,1,65.18,87H6.81A1.82,1.82,0,0,1,5,85.18V80.27A7.26,7.26,0,0,1,12.27,73H59.73A7.27,7.27,0,0,1,67,80.27Z"/><path class="cls-1" d="M45.36,47H26.63a3.64,3.64,0,0,1-1.28-.24c1,2,3.65,9.17,3.65,26.25H43c0-17.08,2.66-24.21,3.64-26.25A3.64,3.64,0,0,1,45.36,47Z"/><path class="cls-1" d="M62.41,91.75A1.8,1.8,0,0,1,60.69,93H11.31a1.82,1.82,0,0,1-1.73-1.25L8,87H64Z"/><line class="cls-1" x1="28.88" y1="67" x2="43.11" y2="67"/><rect class="cls-1" x="23" y="30.99" width="26.01" height="16" rx="3.64" ry="3.64"/></g></svg>