<svg id="Line" xmlns="http://www.w3.org/2000/svg" viewBox="0 0 100 112"><defs><style>.cls-1{fill:none;stroke:#000000;stroke-linecap:round;stroke-linejoin:round;}</style></defs><title>17- flowchart</title><g id="Icons"><polygon class="cls-1" points="52.19 21.69 58.09 34.96 65.46 27.58 52.19 21.69"/><line class="cls-1" x1="57.25" y1="40.27" x2="17.51" y2="40.27"/><path class="cls-1" d="M78,61V86.84a3.47,3.47,0,0,1-3.47,3.47H11.25A6.25,6.25,0,0,1,5,84.06V43.75"/><path class="cls-1" d="M5,84.24a6.25,6.25,0,0,1,11-4.08.86.86,0,0,0,1.51-.57V36.64A6.49,6.49,0,0,0,11.59,30,6.25,6.25,0,0,0,5,36.28v48Z"/><path class="cls-1" d="M42.88,52.09A.87.87,0,0,1,42,53H25a.87.87,0,0,1-.87-.87V47.57a.86.86,0,0,1,.87-.86H42a.86.86,0,0,1,.87.86Z"/><path class="cls-1" d="M69.93,53H54.17a.86.86,0,0,1-.87-.87V47.57a.87.87,0,0,1,.87-.87h9.5"/><rect class="cls-1" x="43.65" y="56.88" width="8.85" height="8.85" transform="translate(-29.27 51.95) rotate(-45)"/><path class="cls-1" d="M62.68,53v4.17a4.17,4.17,0,0,1-4.17,4.17H54.34"/><path class="cls-1" d="M33.49,53v4.17a4.17,4.17,0,0,0,4.17,4.17h4.17"/><line class="cls-1" x1="48.09" y1="67.55" x2="48.09" y2="77.98"/><path class="cls-1" d="M28.28,78V75.89a4.17,4.17,0,0,1,4.17-4.16H63.73a4.17,4.17,0,0,1,4.17,4.16V78"/><path class="cls-1" d="M28.28,78a3.13,3.13,0,1,1-3.13,3.13A3.13,3.13,0,0,1,28.28,78Z"/><path class="cls-1" d="M48.09,78A3.13,3.13,0,1,1,45,81.11,3.13,3.13,0,0,1,48.09,78Z"/><path class="cls-1" d="M67.9,78a3.13,3.13,0,1,1-3.13,3.13A3.13,3.13,0,0,1,67.9,78Z"/><rect class="cls-1" x="70.19" y="25.62" width="10.42" height="38.57" transform="translate(-9.67 66.46) rotate(-44.99)"/><polyline class="cls-1" points="89.04 58.55 85.35 62.24 58.08 34.96 61.76 31.28"/><rect class="cls-1" x="82.35" y="54.98" width="10.42" height="4.17" transform="translate(-14.71 78.64) rotate(-45.01)"/><path class="cls-1" d="M92.74,54.86l-7.38,7.37.74.74a5.21,5.21,0,0,0,7.37-7.38Z"/><polygon class="cls-1" points="52.19 21.69 55.82 29.85 60.36 25.32 52.19 21.69"/><line class="cls-1" x1="61.76" y1="31.28" x2="86.09" y2="55.6"/></g></svg>
