<svg id="Line" xmlns="http://www.w3.org/2000/svg" viewBox="0 0 100 112"><defs><style>.cls-1{fill:none;stroke:#000000;stroke-linecap:round;stroke-linejoin:round;}</style></defs><title>22- jigsaw-programming-drag-and-drop-2</title><g id="Icons"><path class="cls-1" d="M65,76.44a5.85,5.85,0,0,0-5.26.94V64.44H50.3a2.38,2.38,0,0,0-1.78.81A2.43,2.43,0,0,0,48,67.13a6,6,0,0,1-.19,2.57,5.82,5.82,0,0,1-4.11,4A5.89,5.89,0,0,1,36.29,68a5.69,5.69,0,0,1,.06-.83A2.34,2.34,0,0,0,34,64.44H26.9a2.35,2.35,0,0,0-2.35,2.35V77.38A5.86,5.86,0,1,0,21,87.92a5.76,5.76,0,0,0,3.52-1.2v10.6a2.35,2.35,0,0,0,2.35,2.34H59.78V86.72a5.76,5.76,0,0,0,3.52,1.2A5.88,5.88,0,0,0,69,80.55,5.81,5.81,0,0,0,65,76.44Z"/><path class="cls-1" d="M82.06,64.44a5.87,5.87,0,1,0-9.34,0H59.78V77.38A5.86,5.86,0,1,1,63.3,87.92a5.76,5.76,0,0,1-3.52-1.2V99.66H92.65A2.35,2.35,0,0,0,95,97.32V64.44Z"/><path class="cls-1" d="M38.91,52.36a2.35,2.35,0,0,0-1-3.41,5.9,5.9,0,0,1-2.07-1.55,5.88,5.88,0,0,1,7.64-8.75,6.79,6.79,0,0,1,.67.49,2.33,2.33,0,0,0,1.88.55,2.38,2.38,0,0,0,1.64-1.06l3.82-6a2.35,2.35,0,0,0-.72-3.24l-8.94-5.69a5.84,5.84,0,0,0,2.27-9.46,5.87,5.87,0,0,0-9.27.84,5.75,5.75,0,0,0-.88,3.61L25,13a2.34,2.34,0,0,0-3.24.72l-3.83,6a2.37,2.37,0,0,0-.26,1.94A2.33,2.33,0,0,0,19,23.13,5.87,5.87,0,0,1,21,24.68a5.81,5.81,0,0,1,1.12,5.58,5.87,5.87,0,0,1-8.75,3.17,6.79,6.79,0,0,1-.67-.49,2.34,2.34,0,0,0-1.88-.55,2.38,2.38,0,0,0-1.64,1.06l-3.82,6a2.34,2.34,0,0,0,.72,3.24L15,48.4a5.84,5.84,0,0,0-2.27,9.46A5.87,5.87,0,0,0,22,57a5.81,5.81,0,0,0,.88-3.61l8.94,5.68a2.34,2.34,0,0,0,3.24-.72Z"/><path class="cls-1" d="M85.52,29.22a2.31,2.31,0,0,0-1.77.81,2.34,2.34,0,0,0-.55,1.88,5.87,5.87,0,1,1-11.68.83,5.69,5.69,0,0,1,.06-.83,2.35,2.35,0,0,0-2.33-2.69H62.12a2.35,2.35,0,0,0-2.34,2.35V42.16a5.85,5.85,0,0,0-9.21,3.17,5.86,5.86,0,0,0,9.21,6.17V64.44H72.72a5.85,5.85,0,0,1,3.17-9.2,5.85,5.85,0,0,1,6.17,9.2H95V31.57a2.35,2.35,0,0,0-2.35-2.35Z"/></g></svg>
