<svg id="Line" xmlns="http://www.w3.org/2000/svg" viewBox="0 0 100 112"><defs><style>.cls-1{fill:none;stroke:#000000;stroke-linecap:round;stroke-linejoin:round;}</style></defs><title>47- cloud-laptop-programming-upload</title><g id="Icons"><path class="cls-1" d="M53.33,43.67V31.92l4.18,4.18a2.72,2.72,0,0,0,3.84-3.84l-9.49-9.48a2.72,2.72,0,0,0-3.83,0l-9.49,9.48a2.72,2.72,0,0,0,3.84,3.84l4.17-4.18V43.67"/><path class="cls-1" d="M43.16,43.67H27.63a9.42,9.42,0,0,1,0-18.83,7.61,7.61,0,0,1,1.18.12v-.12A18.84,18.84,0,0,1,62,12.64a9.37,9.37,0,0,1,15.08,7.48,9.17,9.17,0,0,1-.28,2.18A11.76,11.76,0,0,1,70,43.67H56.71"/><path class="cls-1" d="M61.35,36.1a2.73,2.73,0,0,1-3.84,0l-4.18-4.18V56.54a3.39,3.39,0,0,1-6.78,0V31.92L42.38,36.1a2.72,2.72,0,0,1-3.84-3.84L48,22.78a2.72,2.72,0,0,1,3.83,0l9.49,9.48A2.72,2.72,0,0,1,61.35,36.1Z"/><path class="cls-1" d="M77.84,99.22H22.28a1.35,1.35,0,0,0-1.35,1.36v2.71H79.2v-2.71A1.36,1.36,0,0,0,77.84,99.22Z"/><path class="cls-1" d="M79.2,103.29H20.93A5.05,5.05,0,0,0,25.59,106h49a5,5,0,0,0,4.63-2.69Z"/><path class="cls-1" d="M75.13,70.77a2.71,2.71,0,0,0-2.71-2.71H27.7A2.71,2.71,0,0,0,25,70.77V99.22H75.13Z"/><rect class="cls-1" x="31.77" y="74.83" width="36.59" height="18.97" rx="1.36" ry="1.36"/><line class="cls-1" x1="38.54" y1="74.83" x2="38.54" y2="93.8"/><line class="cls-1" x1="34.48" y1="78.9" x2="35.83" y2="78.9"/><line class="cls-1" x1="34.48" y1="81.61" x2="35.83" y2="81.61"/><line class="cls-1" x1="34.48" y1="84.32" x2="35.83" y2="84.32"/><line class="cls-1" x1="34.48" y1="87.03" x2="35.83" y2="87.03"/><line class="cls-1" x1="34.48" y1="89.74" x2="35.83" y2="89.74"/><line class="cls-1" x1="41.25" y1="78.9" x2="45.32" y2="78.9"/><line class="cls-1" x1="43.96" y1="81.61" x2="54.8" y2="81.61"/><line class="cls-1" x1="43.96" y1="84.32" x2="48.03" y2="84.32"/><line class="cls-1" x1="41.25" y1="87.03" x2="48.03" y2="87.03"/><line class="cls-1" x1="43.96" y1="89.74" x2="52.77" y2="89.74"/></g></svg>
